<svg xmlns="http://www.w3.org/2000/svg" height="800" width="1200" viewBox="-60 -28.5045 520 171.027"><g fill="#FD000D"><path d="M197.41 36.682v15.951c-36.343-14.902-35.063 37.502-.475 21.316 0 4.805.475 10.971.475 15.778-72.69 23.933-74.67-73.657-.01-53.045"/><path d="M63.594 34.005s-3.378-2.329-9.55-3.494c-8.175-1.543-25.618-1.324-32.607-14.091C17.942 9.97 18.409 4.775 18.526 0c0 0 3.138 1.603 11.74 2.545 5.75.628 33.463.413 33.328 31.46" fill="#5EB423"/><path d="M73.048 10.931h25.805v81.083H73.048zm36.612.116h27.445v19.301H109.66zm0 25.038h27.445v56.333H109.66zm263.06 26.95c0 9.39-2.804 12.014-7.982 12.014-5.175 0-6.468-5.111-6.468-5.111v-14.22s1.293-5.107 6.468-5.107c5.179 0 7.982 2.623 7.982 12.012zM364.68 35.8a23.36 23.36 0 00-7.72 6.267v-6.133h-24.846v78.084h24.846V82.661a28.38 28.38 0 007.72 6.633c6.21 3.627 34.413 4.433 35.32-21.642V57.437c-.91-26.075-27.99-25.357-35.32-21.639M39.446 74.195s-3.121 6.472-10.358 6.472-10.5-17.006 10.358-13.543zm-1.471-16.318s-23.452-6.185-33.307 6.639C-4.49 76.439.095 91.294 16.08 92.93c14.79 1.514 22.65-7.481 22.65-7.481l.232-.198v6.748h24.962V55.102s-.371-15.176-19.938-18.97c-12.04-2.332-33.264.317-37.106 2.298l-.233 14.79s8.599-4.435 20.495-4.192c5.707.117 12.113 1.282 11.645 8.735zM309.08 38.546c-2.912 2.445-4.541 5.008-5.357 7.336l.006-9.949h-25.997v56.833h27.395V70.25c.228-10.275 5.37-12.904 8.029-14.119 3.844-1.755 11.816-1.515 11.816-1.515V34.882c-9.72-.411-13.3 1.493-15.89 3.664M236.6 76.277c-5.85 0-6.712-3.526-6.712-13.89 0-10.355 1.109-12.429 6.712-12.429 5.609 0 6.564 2.074 6.564 12.429.01 10.363-.7 13.89-6.56 13.89m.71-41.815c-19.466 0-35.246 8.121-35.246 29.092 0 22.623 19.796 29.095 35.246 29.095 17.392 0 35.249-6.823 35.249-29.095 0-21.506-15.79-29.092-35.25-29.092"/></g></svg>