<?xml version="1.0" encoding="UTF-8" standalone="no"?>
<!-- Created with Inkscape (http://www.inkscape.org/) -->

<svg
   version="1.1"
   id="svg2"
   width="1000"
   height="600"
   viewBox="0 0 1000 600"
   sodipodi:docname="logo-white.svg"
   inkscape:version="1.2.2 (b0a84865, 2022-12-01)"
   xmlns:inkscape="http://www.inkscape.org/namespaces/inkscape"
   xmlns:sodipodi="http://sodipodi.sourceforge.net/DTD/sodipodi-0.dtd"
   xmlns="http://www.w3.org/2000/svg"
   xmlns:svg="http://www.w3.org/2000/svg">
  <defs
     id="defs210" />
  <sodipodi:namedview
     id="namedview208"
     pagecolor="#ffffff"
     bordercolor="#000000"
     borderopacity="0.25"
     inkscape:showpageshadow="2"
     inkscape:pageopacity="0.0"
     inkscape:pagecheckerboard="0"
     inkscape:deskcolor="#d1d1d1"
     showgrid="false"
     inkscape:zoom="0.16388889"
     inkscape:cx="289.83051"
     inkscape:cy="439.32203"
     inkscape:window-width="1309"
     inkscape:window-height="456"
     inkscape:window-x="0"
     inkscape:window-y="25"
     inkscape:window-maximized="0"
     inkscape:current-layer="g8" />
  <g
     id="g8"
     inkscape:groupmode="layer"
     inkscape:label="Cloudtarget-LightMode"
     transform="matrix(1.3333333,0,0,-1.3333333,0,1440)">
    <path
       d="M 0,0 H 1080 V 1080 H 0 Z"
       style="fill:#ffffff;fill-opacity:0;fill-rule:nonzero;stroke:none"
       id="path10" />
    <g
       id="g12"
       transform="translate(478.81928,832.19873)">
      <path
         d="M 0,0 V -46.809 H -107.174 V -16.171 8.061 49.928 56.91 H -73.249 -33.805 0 V 55.446 8.061 Z"
         style="fill:#009bff;fill-opacity:1;fill-rule:nonzero;stroke:none"
         id="path14" />
    </g>
    <g
       id="g431"
       transform="translate(-160.16954,297.45763)">
      <g
         id="g16">
        <g
           id="g18"
           clip-path="url(#clipPath22)">
          <g
             id="g24"
             transform="translate(531.8146,518.5703)">
            <path
               d="m 0,0 v -30.638 h -74.64 v 0.024 c -0.528,-0.024 -1.08,-0.024 -1.608,-0.024 -7.629,0 -15.091,0.767 -22.265,2.255 l 22.913,26.176 0.96,1.103 22.145,25.336 42.082,48.129 v 0.72 H -8.085 0 V 66.099 24.232 Z"
               style="fill:#0044ff;fill-opacity:1;fill-rule:nonzero;stroke:none"
               id="path26" />
          </g>
          <g
             id="g28"
             transform="translate(521.4019,591.6511)">
            <path
               d="m 0,0 v -0.72 l -42.083,-48.129 -22.145,-25.336 -0.959,-1.103 -106.934,111.637 c 12.979,46.521 55.638,80.662 106.286,80.662 20.034,0 38.82,-5.35 55.038,-14.683 -6.645,-11.085 -10.796,-23.849 -11.636,-37.5 h -6.19 c -8.949,0 -17.059,-3.623 -22.913,-9.502 -5.878,-5.854 -9.501,-13.963 -9.501,-22.912 C -61.037,14.515 -46.521,0 -28.623,0 Z"
               style="fill:#0072ff;fill-opacity:1;fill-rule:nonzero;stroke:none"
               id="path30" />
          </g>
          <g
             id="g32"
             transform="translate(349.2805,627.9996)">
            <path
               d="m 0,0 106.934,-111.637 -22.913,-26.175 c -50.288,10.292 -88.1,54.774 -88.1,108.109 0,10.293 1.44,20.25 4.079,29.703"
               style="fill:#009bff;fill-opacity:1;fill-rule:nonzero;stroke:none"
               id="path34" />
          </g>
          <g
             id="g36"
             transform="translate(269.1154,378.3893)">
            <path
               d="m 0,0 c -5.301,-6.747 -13.735,-10.481 -23.735,-10.481 -18.192,0 -30.602,12.289 -30.602,30.241 0,17.951 12.41,30.24 30.602,30.24 8.915,0 16.626,-3.133 22.41,-8.915 C -0.481,40.12 0,38.916 0,37.471 0,34.578 -2.048,32.53 -4.939,32.53 c -1.326,0 -2.651,0.482 -3.615,1.446 -4.337,4.217 -8.915,6.265 -15.181,6.265 -11.807,0 -19.879,-8.313 -19.879,-20.481 0,-12.17 8.072,-20.483 19.879,-20.483 6.626,0 12.048,2.289 15.783,6.868 0.843,1.084 2.289,1.928 3.976,1.928 3.012,0 5.061,-1.928 5.061,-4.94 C 1.085,2.049 0.723,0.964 0,0"
               style="fill:#032777;fill-opacity:1;fill-rule:nonzero;stroke:none"
               id="path38" />
          </g>
          <g
             id="g40"
             transform="translate(291.7618,448.7509)">
            <path
               d="m 0,0 v -74.457 c 0,-3.495 -1.928,-5.663 -5.301,-5.663 -3.253,0 -5.182,2.168 -5.182,5.663 V 0 c 0,3.495 1.929,5.663 5.182,5.663 C -1.928,5.663 0,3.495 0,0"
               style="fill:#032777;fill-opacity:1;fill-rule:nonzero;stroke:none"
               id="path42" />
          </g>
          <g
             id="g44"
             transform="translate(334.7724,377.6664)">
            <path
               d="m 0,0 c 11.927,0 20,8.313 20,20.483 0,12.168 -8.073,20.481 -20,20.481 -11.808,0 -19.879,-8.313 -19.879,-20.481 C -19.879,8.313 -11.808,0 0,0 m 0,50.723 c 18.192,0 30.723,-12.289 30.723,-30.24 C 30.723,2.53 18.192,-9.759 0,-9.759 c -18.193,0 -30.602,12.289 -30.602,30.242 0,17.951 12.409,30.24 30.602,30.24"
               style="fill:#032777;fill-opacity:1;fill-rule:nonzero;stroke:none"
               id="path46" />
          </g>
          <g
             id="g48"
             transform="translate(432.1162,421.8837)">
            <path
               d="m 0,0 v -47.831 c 0,-3.254 -2.168,-5.422 -5.301,-5.422 -3.012,0 -5.18,2.168 -5.18,5.422 v 3.132 h -0.242 c -4.337,-5.904 -11.325,-9.277 -20.362,-9.277 -15.903,0 -24.578,9.398 -24.578,26.867 V 0 c 0,3.614 2.049,5.783 5.301,5.783 3.253,0 5.182,-2.169 5.182,-5.783 v -26.144 c 0,-11.687 5.782,-18.073 16.626,-18.073 11.085,0 18.073,7.831 18.073,20.362 V 0 c 0,3.614 2.047,5.783 5.18,5.783 C -1.927,5.783 0,3.614 0,0"
               style="fill:#032777;fill-opacity:1;fill-rule:nonzero;stroke:none"
               id="path50" />
          </g>
          <g
             id="g52"
             transform="translate(495.1244,398.149)">
            <path
               d="m 0,0 c 0,12.048 -8.192,20.481 -20.121,20.481 -11.686,0 -19.758,-8.313 -19.758,-20.481 0,-12.17 8.072,-20.483 19.758,-20.483 C -8.192,-20.483 0,-12.049 0,0 m 10.481,50.481 v -74.336 c 0,-3.495 -2.047,-5.663 -5.301,-5.663 -3.253,0 -5.18,2.168 -5.18,5.663 v 3.252 h -0.241 c -4.579,-6.145 -12.169,-9.638 -21.807,-9.638 -17.108,0 -28.554,12.048 -28.554,30.241 0,18.072 11.446,30.24 28.554,30.24 9.638,0 17.228,-3.614 21.807,-9.638 H 0 v 29.879 c 0,3.616 1.927,5.784 5.18,5.784 3.254,0 5.301,-2.168 5.301,-5.784"
               style="fill:#032777;fill-opacity:1;fill-rule:nonzero;stroke:none"
               id="path54" />
          </g>
          <g
             id="g56"
             transform="translate(560.0585,378.3893)">
            <path
               d="m 0,0 c -3.374,-6.988 -10.241,-10.481 -19.277,-10.481 -13.493,0 -21.687,8.554 -21.687,22.891 v 50.12 c 0,3.495 2.049,5.663 5.301,5.663 3.253,0 5.182,-2.168 5.182,-5.663 V 48.554 H -7.59 c 3.253,0 5.18,-1.927 5.18,-4.939 0,-3.012 -1.927,-4.819 -5.18,-4.819 H -30.481 V 12.049 c 0,-8.073 4.337,-12.772 11.685,-12.772 4.941,0 8.073,2.169 10.483,6.024 0.844,1.206 2.048,2.17 4.097,2.17 2.77,0 4.818,-2.049 4.818,-5.061 C 0.602,1.566 0.362,0.723 0,0"
               style="fill:#032777;fill-opacity:1;fill-rule:nonzero;stroke:none"
               id="path58" />
          </g>
          <g
             id="g60"
             transform="translate(617.0451,398.149)">
            <path
               d="m 0,0 c 0,12.048 -8.192,20.481 -20.121,20.481 -11.686,0 -19.758,-8.313 -19.758,-20.481 0,-12.17 8.072,-20.483 19.758,-20.483 C -8.192,-20.483 0,-12.049 0,0 m 10.482,23.735 v -47.59 c 0,-3.495 -2.048,-5.663 -5.302,-5.663 -3.253,0 -5.18,2.168 -5.18,5.663 v 3.252 h -0.241 c -4.579,-6.145 -12.169,-9.638 -21.807,-9.638 -17.108,0 -28.554,12.048 -28.554,30.241 0,18.072 11.446,30.24 28.554,30.24 9.638,0 17.228,-3.614 21.807,-9.638 H 0 v 3.133 c 0,3.614 1.927,5.782 5.18,5.782 3.254,0 5.302,-2.168 5.302,-5.782"
               style="fill:#032777;fill-opacity:1;fill-rule:nonzero;stroke:none"
               id="path62" />
          </g>
          <g
             id="g64"
             transform="translate(678.1238,422.7272)">
            <path
               d="m 0,0 c 0,-3.253 -2.168,-5.182 -5.301,-5.182 -12.651,0 -19.879,-7.348 -19.879,-23.011 v -20.241 c 0,-3.494 -1.929,-5.663 -5.301,-5.663 -3.254,0 -5.182,2.169 -5.182,5.663 v 47.59 c 0,3.615 1.928,5.783 5.182,5.783 3.372,0 5.301,-2.168 5.301,-5.783 v -4.217 h 0.24 C -20.964,1.687 -14.458,5.301 -5.301,5.301 -2.168,5.301 0,3.373 0,0"
               style="fill:#032777;fill-opacity:1;fill-rule:nonzero;stroke:none"
               id="path66" />
          </g>
          <g
             id="g68"
             transform="translate(730.8931,398.8718)">
            <path
               d="m 0,0 c 0,11.927 -8.073,19.759 -20.362,19.759 -11.686,0 -19.517,-7.832 -19.517,-19.759 0,-11.928 7.831,-19.76 19.517,-19.76 C -8.073,-19.76 0,-11.928 0,0 M 10.481,23.012 V -24.94 c 0,-17.711 -11.566,-28.434 -30.24,-28.434 -11.686,0 -21.326,3.614 -25.783,9.277 -0.602,0.844 -1.085,2.048 -1.085,3.374 0,2.892 2.049,5.06 5.182,5.06 1.687,0 2.649,-0.602 3.855,-1.808 4.216,-4.336 10.121,-6.144 17.469,-6.144 12.41,0 20.121,6.988 20.121,18.193 v 5.301 h -0.241 c -4.579,-6.023 -12.289,-9.397 -22.048,-9.397 -16.988,0 -28.313,11.807 -28.313,29.518 0,17.711 11.325,29.517 28.313,29.517 9.638,0 17.349,-3.373 22.048,-9.396 H 0 v 2.891 c 0,3.614 1.927,5.782 5.18,5.782 3.254,0 5.301,-2.168 5.301,-5.782"
               style="fill:#032777;fill-opacity:1;fill-rule:nonzero;stroke:none"
               id="path70" />
          </g>
          <g
             id="g72"
             transform="translate(765.1045,403.4501)">
            <path
               d="M 0,0 H 38.554 C 36.506,9.156 29.277,15.18 19.277,15.18 9.277,15.18 2.048,9.156 0,0 m 48.795,-2.772 c 0,-4.216 -2.53,-6.626 -6.747,-6.626 H -0.241 c 1.687,-9.879 9.156,-16.386 20.12,-16.386 7.109,0 12.651,2.772 16.145,6.868 1.085,1.205 2.41,1.928 4.096,1.928 3.012,0 5.06,-2.049 5.06,-4.94 0,-1.084 -0.361,-2.169 -1.083,-3.133 -5.422,-6.505 -13.976,-10.481 -24.218,-10.481 -18.795,0 -31.204,12.168 -31.204,30.241 0,17.951 12.409,30.24 30.602,30.24 16.988,0 29.518,-12.048 29.518,-27.469 z"
               style="fill:#032777;fill-opacity:1;fill-rule:nonzero;stroke:none"
               id="path74" />
          </g>
          <g
             id="g76"
             transform="translate(864.6191,378.3893)">
            <path
               d="m 0,0 c -3.374,-6.988 -10.241,-10.481 -19.277,-10.481 -13.493,0 -21.687,8.554 -21.687,22.891 v 50.12 c 0,3.495 2.049,5.663 5.301,5.663 3.253,0 5.182,-2.168 5.182,-5.663 V 48.554 H -7.59 c 3.253,0 5.18,-1.927 5.18,-4.939 0,-3.012 -1.927,-4.819 -5.18,-4.819 H -30.481 V 12.049 c 0,-8.073 4.337,-12.772 11.685,-12.772 4.941,0 8.073,2.169 10.483,6.024 0.844,1.206 2.048,2.17 4.097,2.17 2.77,0 4.818,-2.049 4.818,-5.061 C 0.602,1.566 0.362,0.723 0,0"
               style="fill:#032777;fill-opacity:1;fill-rule:nonzero;stroke:none"
               id="path78" />
          </g>
          <g
             id="g80"
             transform="translate(734.8144,591.6511)">
            <path
               d="m 0,0 c 0,-27.471 -17.083,-50.936 -41.195,-60.365 3.191,-4.486 5.086,-9.981 5.086,-15.931 0,-15.139 -12.284,-27.423 -27.447,-27.423 h -32.27 V -56.91 -48.849 -1.464 0 h -33.805 -39.443 -33.926 -8.085 -2.327 -28.623 c -17.899,0 -32.414,14.515 -32.414,32.414 0,8.949 3.623,17.058 9.501,22.912 5.854,5.879 13.963,9.502 22.913,9.502 h 6.19 c 0.839,13.651 4.99,26.415 11.636,37.5 14.563,24.28 41.147,40.523 71.521,40.523 44.314,0 80.543,-34.573 83.206,-78.215 1.535,0.143 3.095,0.192 4.678,0.192 C -29.007,64.828 0,35.797 0,0"
               style="fill:#032777;fill-opacity:1;fill-rule:nonzero;stroke:none"
               id="path82" />
          </g>
        </g>
      </g>
    </g>
  </g>
</svg>
